<?xml version="1.0" standalone="no"?>
<!DOCTYPE svg PUBLIC "-//W3C//DTD SVG 1.1//EN" "http://www.w3.org/Graphics/SVG/1.1/DTD/svg11.dtd" >
<svg xmlns="http://www.w3.org/2000/svg">
<metadata>Generated by IcoMoon</metadata>
<defs>
<font id="itrufont" horiz-adv-x="1024">
<font-face units-per-em="1024" ascent="960" descent="-64" />
<missing-glyph horiz-adv-x="1024" />
<glyph unicode="&#x20;" d="" horiz-adv-x="512" />
<glyph unicode="&#xe600;" d="M981.129 831.262c7.328-19.046 2.102-66.617-2.095-104.82-1.703-15.416-3.284-30.003-3.759-40.091l-1.427-31.21c-4.591-99.945-7.918-172.154-13.459-266.392-0.593-9.938-1.029-19.613-1.502-29.022-2.14-44.626-4.001-83.129-16.355-115.812-11.676-30.947-47.627-71.001-73.835-100.206-3.329-3.705-6.493-7.257-9.506-10.623-52.101-58.756-116.91-126.618-202.152-184.392-45.688-31.063-94.977-59.741-145.421-59.741-1.187 0-2.412 0-3.64 0.038-95.136 2.647-195.819 98.658-244.2 144.795-30.723 29.322-61.801 61.817-95.062 99.299-7.363 8.241-15.283 16.589-23.714 25.434-24.706 25.957-50.282 52.822-62.593 79.652-12.789 27.959-14.292 62.607-16.155 106.441-0.516 11.414-0.989 23.201-1.741 35.635-3.328 56.149-6.335 121.708-9.262 185.15-1.784 39.258-3.641 79.841-5.583 118.118-0.714 13.981-2.694 30.191-4.792 47.343-4.712 38.316-9.58 77.99-1.066 100.397 8.475 22.257 59.346 38.279 96.523 49.99l5.069 1.587c41.253 13.036 79.577 24.259 116.636 35.141 39.99 11.752 77.756 22.861 117.943 35.747 9.383 2.984 18.609 6.345 28.429 9.898 28.306 10.24 57.565 20.858 93.591 24.146 3.168 0.303 6.492 0.416 9.898 0.416 30.719 0 64.572-11.939 94.427-22.52 9.383-3.328 18.29-6.461 26.724-9.106 38.286-12.093 79.144-24.261 122.415-37.107 39.831-11.864 80.964-24.108 121.114-36.613l6.809-2.115c43.941-13.684 89.436-27.776 97.746-49.463zM974.284 686.39c1.587 34.686 16.118 117.929 5.94 144.532-8.59 22.369-58.634 36.878-103.965 51.010-82.825 25.844-169.254 50.254-243.528 73.72-38.679 12.204-88.331 35.026-130.655 31.174-48.296-4.422-85.238-22.332-121.783-34.008-78.232-25.091-149.812-44.096-234.581-70.885-36.503-11.525-92.287-28.116-100.997-51.010-12.233-32.194 3.681-102.248 5.938-147.365 5.065-100.322 9.463-212.472 14.849-303.27 3.561-59.89 1.741-106.63 17.815-141.732 16.392-35.748 57.051-72.174 86.15-104.858 31.476-35.483 62.319-68.017 95.021-99.227 54.241-51.73 151.676-141.96 243.525-144.532 54.911-1.547 108.876 32.646 148.468 59.513 78.63 53.318 141.818 116.454 201.96 184.246 27.36 30.796 70.117 75.986 83.14 110.524 14.925 39.449 14.493 87.662 17.815 144.568 6.1 103.91 9.581 182.58 14.887 297.602z" />
<glyph unicode="&#xe601;" d="M980.224 830.919c10.176-26.6-4.355-109.845-5.94-144.532-5.305-115.022-8.788-193.692-14.886-297.603-3.326-56.906-2.892-105.12-17.815-144.568-13.024-34.537-55.781-79.727-83.14-110.524-60.141-67.789-123.329-130.93-201.96-184.246-39.592-26.866-93.554-61.061-148.468-59.513-91.85 2.57-189.284 92.802-243.525 144.532-32.702 31.21-63.544 63.744-95.021 99.227-29.099 32.684-69.759 69.11-86.15 104.858-16.075 35.101-14.252 81.842-17.815 141.732-5.384 90.799-9.781 202.949-14.849 303.27-2.254 45.117-18.172 115.172-5.938 147.365 8.71 22.894 64.493 39.485 100.997 51.010 84.766 26.789 156.347 45.794 234.581 70.885 36.544 11.674 73.482 29.588 121.783 34.008 42.326 3.853 91.973-18.969 130.655-31.174 74.274-23.465 160.703-47.873 243.528-73.72 45.33-14.131 95.372-28.64 103.964-51.009zM977.058 726.631c4.156 38.014 9.383 85.321 2.252 103.949-7.993 20.859-53.012 34.841-96.562 48.329l-6.809 2.115c-40.105 12.507-81.282 24.748-121.071 36.614-43.271 12.847-84.132 25.015-122.454 37.105-8.476 2.685-17.381 5.819-26.765 9.146-29.733 10.503-63.387 22.406-93.753 22.406-3.328 0-6.612-0.111-9.74-0.414-35.75-3.249-64.889-13.831-93.041-24.033-9.82-3.553-19.083-6.913-28.507-9.939-40.186-12.885-77.994-23.956-117.982-35.706-37.058-10.882-75.383-22.141-116.599-35.178l-5.066-1.588c-36.78-11.561-87.179-27.393-95.337-48.859-8.315-21.954-3.483-61.402 1.187-99.528 2.14-17.153 4.12-33.402 4.831-47.459 1.942-38.279 3.801-78.858 5.585-118.118 2.929-63.406 5.938-128.965 9.262-185.151 0.751-12.43 1.228-24.221 1.741-35.633 1.862-43.644 3.328-78.107 15.993-105.766 12.195-26.56 37.613-53.277 62.238-79.159 8.434-8.845 16.39-17.195 23.755-25.472 33.69-37.974 63.861-69.446 94.977-99.148 48.182-45.989 148.469-141.623 242.854-144.269 51.070-1.473 101.312 27.734 147.873 59.325 85.046 57.697 149.696 125.449 201.758 184.091 3.007 3.403 6.178 6.914 9.504 10.619 26.129 29.132 61.92 69.036 73.442 99.599 12.27 32.462 14.136 70.852 16.273 115.289 0.473 9.407 0.91 19.079 1.504 29.018 5.539 94.275 8.866 166.485 13.458 266.429l1.428 31.174c0.478 10.165 2.057 24.749 3.764 40.205z" />
<glyph unicode="&#xe602;" d="M979.31 830.579c7.13-18.627 1.903-65.935-2.252-103.949-1.705-15.455-3.285-30.042-3.762-40.205l-1.428-31.174c-4.59-99.945-7.918-172.154-13.458-266.429-0.593-9.941-1.029-19.613-1.504-29.018-2.139-44.44-4.001-82.826-16.273-115.289-11.523-30.563-47.314-70.467-73.442-99.599-3.328-3.705-6.497-7.219-9.504-10.619-52.062-58.643-116.712-126.394-201.758-184.091-46.556-31.588-96.802-60.795-147.873-59.325-94.386 2.647-194.673 98.278-242.854 144.269-31.121 29.7-61.287 61.175-94.977 99.148-7.366 8.279-15.322 16.627-23.755 25.472-24.628 25.879-50.044 52.597-62.238 79.159-12.67 27.66-14.135 62.122-15.993 105.766-0.515 11.411-0.989 23.201-1.741 35.633-3.328 56.187-6.335 121.746-9.262 185.151-1.784 39.258-3.642 79.841-5.585 118.118-0.713 14.058-2.694 30.306-4.831 47.459-4.668 38.125-9.5 77.572-1.187 99.528 8.156 21.463 58.556 37.295 95.337 48.859l5.066 1.588c41.216 13.036 79.541 24.297 116.599 35.178 39.989 11.751 77.796 22.823 117.982 35.706 9.421 3.026 18.686 6.387 28.507 9.939 28.153 10.202 57.287 20.781 93.041 24.033 3.128 0.301 6.415 0.414 9.74 0.414 30.366 0 64.020-11.902 93.753-22.406 9.383-3.329 18.291-6.463 26.765-9.146 38.323-12.092 79.183-24.258 122.454-37.105 39.789-11.865 80.964-24.108 121.071-36.614l6.809-2.115c43.547-13.489 88.564-27.47 96.559-48.329zM783.256 310.947c4.553 4.952 6.217 11.147 4.911 18.441-1.388 7.486-13.978 14.888-26.173 22.068-8.668 5.096-17.66 10.39-21.536 15.189-21.579 26.714-27.561 70.621-33.855 117.097-5.939 43.795-12.114 89.062-31.434 126.508-21.815 42.473-59.744 71-109.631 82.525 1.662 10.994 5.030 20.593 8.277 29.851 4.99 14.172 10.175 28.833 9.419 48.821 0 0.226-0.115 0.453-0.271 0.642-25.222 23.654-115.928 19.347-143.759 2.947-0.235-0.113-0.395-0.34-0.476-0.604-3.877-19.687 2.696-38.2 9.109-56.113 3.286-9.22 6.688-18.781 8.552-28.301-89.44-11.525-117.032-80.674-133.463-153.676-4.751-20.97-7.602-41.979-10.374-62.345-6.099-44.85-11.837-87.17-36.898-112.942-4.87-4.95-12.431-8.878-19.717-12.655-12.313-6.351-25.063-12.924-25.102-24.826-0.039-6.087 2.258-11.224 6.73-15.305 18.172-16.435 71.106-13.601 117.783-11.107 28.153 1.473 54.795 2.91 71.346 0.113l-1.308-8.804-0.041-0.152c0-0.036 0-0.113 0-0.15 0-0.076 0-0.113 0-0.152 0-0.074 0.041-0.152 0.079-0.189 0.076-0.266 0.317-0.455 0.553-0.531 0.038-0.038 0.118-0.074 0.197-0.074l9.465-1.322c-3.483-26.528 6.771-48.024 28.78-60.647 12.867-7.367 28.783-10.956 44.821-10.956 18.881 0 37.846 4.986 52.1 14.846 19.479 13.453 27.315 33.71 22.012 57.093l6.176 3.403c0.039 0 0.076 0 0.115 0.036 0.081 0.038 0.161 0.074 0.202 0.152l0.038 0.036c0.038 0.038 0.076 0.076 0.119 0.113 0.038 0.038 0.076 0.074 0.038 0.113 0.076 0.113 0.117 0.227 0.076 0.305 0.039 0.036 0.039 0.036 0.039 0.074v0.036c0 0.038 0 0.076 0 0.115l-0.87 6.685c13.423 2.303 37.059 1.095 64.337-0.227 18.49-0.947 37.851-1.888 55.943-1.888 33.101-0.001 61.999 3.209 73.684 15.756z" />
<glyph unicode="&#xe603;" d="M788.167 329.384c-1.388 7.486-13.978 14.888-26.173 22.068-8.668 5.096-17.66 10.39-21.536 15.189-21.579 26.714-27.561 70.621-33.855 117.097-5.939 43.795-12.114 89.062-31.434 126.508-21.815 42.473-59.744 71-109.631 82.525 1.662 10.994 5.030 20.593 8.277 29.851 4.99 14.172 10.175 28.833 9.419 48.821 0 0.226-0.115 0.453-0.271 0.642-25.222 23.654-115.928 19.347-143.759 2.947-0.235-0.113-0.395-0.34-0.476-0.604-3.877-19.687 2.696-38.2 9.109-56.113 3.286-9.22 6.688-18.781 8.552-28.301-89.44-11.525-117.032-80.674-133.463-153.676-4.751-20.97-7.602-41.979-10.374-62.345-6.099-44.85-11.837-87.17-36.898-112.942-4.87-4.95-12.431-8.878-19.717-12.655-12.313-6.351-25.063-12.924-25.102-24.826-0.039-6.087 2.258-11.224 6.73-15.305 18.172-16.435 71.106-13.601 117.783-11.107 28.153 1.473 54.795 2.91 71.346 0.113l0.155 0.945c0.081 0.452 0.519 0.794 1.069 0.794-16.706 3.026-43.943 1.547-72.692 0-46.279-2.456-98.74-5.249-116.278 10.659-4.158 3.739-6.176 8.274-6.139 13.905 0.040 10.767 11.723 16.812 24.034 23.163 7.484 3.855 15.163 7.859 20.229 13.035 6.271 6.43 11.346 13.856 15.529 22.067-0.223 1.346-0.007 2.747 0.802 3.923 0.94 1.362 1.916 2.691 2.878 4.034 10.083 23.953 14.084 53.387 18.239 83.976 2.731 20.289 5.583 41.299 10.294 62.196 22.41 99.3 60.892 143.434 132.827 152.315 0.279 0.036 0.516 0.187 0.674 0.376 0.16 0.227 0.241 0.492 0.198 0.718-1.86 10.016-5.421 19.953-8.828 29.55-6.255 17.57-12.708 35.706-9.066 54.714 27.040 15.492 116.198 19.611 140.626-2.647 0.676-19.459-4.393-33.856-9.303-47.759-3.365-9.598-6.892-19.498-8.515-31.061-0.076-0.453 0.279-0.907 0.754-1.020 49.769-11.26 87.495-39.525 109.193-81.73 19.198-37.181 25.299-82.298 31.235-125.903 6.377-46.778 12.354-90.91 34.249-118.009 4.119-5.096 12.867-10.239 22.093-15.679 11.795-6.954 24.033-14.131 25.218-20.744 1.265-6.801-0.197-12.354-4.433-16.892-17.381-18.703-78.708-15.679-128.001-13.261-26.584 1.327-49.678 2.478-63.534 0.425-0.044-0.072-0.085-0.152-0.133-0.225-0.277-0.421-0.584-0.799-0.872-1.212l0.085-0.614c13.423 2.303 37.059 1.095 64.337-0.227 18.49-0.947 37.851-1.888 55.943-1.888 33.099 0 61.998 3.21 73.683 15.757 4.557 4.953 6.22 11.149 4.916 18.441z" />
<glyph unicode="&#xe604;" d="M589.535 289.637l-6.176-3.403c-0.038 0.227-0.121 0.492-0.158 0.718-0.117 0.489-0.635 0.832-1.188 0.68-0.076-0.036-0.157-0.036-0.234-0.074l3.878 2.115c1.187-0.036 2.333-0.074 3.483-0.113h0.037c0.042 0 0.081 0 0.121 0 0.079 0 0.157 0.039 0.237 0.076z" />
<glyph unicode="&#xe605;" d="M589.139 289.556c-1.152 0.038-2.295 0.076-3.483 0.113l2.454 1.324 0.076-0.604c0.079-0.492 0.436-0.795 0.951-0.834z" />
<glyph unicode="&#xe606;" d="M582.724 285.893c-0.16-0.074-0.318-0.113-0.477-0.113-0.357 0-0.673 0.189-0.868 0.492-0.039 0.074-0.076 0.185-0.076 0.261 5.383-22.9-2.102-42.738-21.102-55.884-25.733-17.759-67.389-19.425-94.747-3.779-21.376 12.218-31.189 33.054-27.811 58.837-0.045 0.165-0.090 0.329-0.131 0.489-0.184-0.233-0.443-0.419-0.76-0.419h-0.156l-0.951 0.113c-3.483-26.528 6.771-48.024 28.78-60.647 12.867-7.367 28.783-10.956 44.821-10.956 18.881 0 37.846 4.986 52.1 14.846 19.479 13.453 27.315 33.71 22.012 57.093l-0.635-0.335z" />
<glyph unicode="&#xe607;" d="M436.87 287.67c-0.515 0.076-1.026-0.302-1.112-0.832-0.038-0.302-0.075-0.641-0.115-0.945l-9.465 1.322c0.081 0 0.119 0 0.158 0 0.041 0 0.119 0 0.157 0 2.181 0.338 4.358 0.68 6.574 0.982l3.801-0.53z" />
<glyph unicode="&#xe608;" d="M433.067 288.199c-2.216-0.302-4.393-0.643-6.574-0.982-0.038 0-0.114 0-0.157 0 0.476 0 0.913 0.338 0.989 0.794l0.158 0.947 5.585-0.758z" />
<glyph unicode="&#xe609;" d="M428.831 297.912v-0.038c-0.115-0.492-0.673-0.832-1.188-0.756-0.317 0.074-0.634 0.113-0.948 0.152l0.155 0.945c0.081 0.452 0.519 0.794 1.069 0.794 0 0 0.038 0 0.076 0 0.119-0.038 0.278-0.074 0.361-0.152 0.115-0.036 0.197-0.113 0.234-0.225 0.081-0.076 0.158-0.152 0.158-0.227 0.039-0.113 0.076-0.189 0.076-0.3-0.001-0.076-0.001-0.113-0.001-0.19z" />
<glyph unicode="&#xe60a;" d="M428.831 298.101c0 0.11-0.038 0.185-0.076 0.3 0.039-0.113 0.076-0.189 0.076-0.3z" />
<glyph unicode="&#xe60b;" d="M428.831 297.874l-1.304-8.581c-0.437-0.036-0.913-0.11-1.349-0.185-0.038 0-0.114-0.040-0.158-0.076-0.075 0-0.158-0.038-0.234-0.115-0.075-0.034-0.158-0.11-0.197-0.183-0.081-0.038-0.119-0.115-0.158-0.227 0 0 0 0-0.038-0.038l1.308 8.804c0.313-0.038 0.63-0.076 0.948-0.152 0.515-0.073 1.068 0.265 1.187 0.758z" />
<glyph unicode="&#xe60c;" d="M428.361 298.853c0.115-0.036 0.197-0.113 0.234-0.225-0.038 0.11-0.118 0.19-0.234 0.225z" />
<glyph unicode="&#xe60d;" d="M427.529 289.293l-0.041-0.338-0.99 0.152c-0.157 0-0.317 0-0.476-0.076 0.042 0.036 0.119 0.076 0.158 0.076 0.437 0.074 0.913 0.15 1.349 0.185z" />
<glyph unicode="&#xe60e;" d="M427.486 288.956l-0.158-0.947c-0.076-0.455-0.516-0.794-0.989-0.794-0.115 0-0.235 0.036-0.355 0.074-0.235 0.074-0.477 0.263-0.553 0.531-0.038 0.113-0.079 0.227-0.079 0.34 0 0.036 0 0.113 0 0.15 0 0.038 0.041 0.113 0.041 0.152 0.038 0.038 0.038 0.038 0.038 0.038 0.039 0.074 0.076 0.189 0.158 0.227 0.038 0.072 0.119 0.15 0.197 0.183 0.076 0.076 0.158 0.115 0.234 0.115 0.158 0.076 0.317 0.076 0.476 0.076l0.99-0.152z" />
<glyph unicode="&#xe60f;" d="M426.337 287.219c-0.038 0-0.076 0-0.158 0-0.076 0-0.158 0.036-0.197 0.074 0.119-0.039 0.238-0.074 0.355-0.074z" />
<glyph unicode="&#xe610;" d="M425.786 288.914c-0.075-0.034-0.158-0.11-0.197-0.183 0.038 0.071 0.119 0.148 0.197 0.183z" />
<glyph unicode="&#xe611;" d="M425.588 288.73c-0.081-0.038-0.119-0.152-0.158-0.227 0.039 0.111 0.076 0.19 0.158 0.227z" />
<glyph unicode="&#xe612;" d="M425.349 288.162c0-0.113 0.041-0.227 0.079-0.34-0.038 0.036-0.079 0.113-0.079 0.189 0 0.039 0 0.074 0 0.152z" />
<glyph unicode="&#xe613;" d="M425.39 288.465c0-0.038-0.041-0.113-0.041-0.152l0.041 0.152z" />
</font>
</defs>
</svg>
